HIERARCHY
ROOT Hips
{
    OFFSET 0.000000 0.000000 0.000000
    CHANNELS 6 Xposition Yposition Zposition Zrotation Xrotation Yrotation
    JOINT Spine
    {
        OFFSET -0.000000 8.603107 0.000000
        CHANNELS 3 Zrotation Xrotation Yrotation
        JOINT Spine1
        {
            OFFSET -0.000000 23.906662 0.000000
            CHANNELS 3 Zrotation Xrotation Yrotation
            JOINT Neck
            {
                OFFSET -0.000000 23.808481 2.164407
                CHANNELS 3 Zrotation Xrotation Yrotation
                JOINT Head
                {
                    OFFSET -0.000000 14.688231 -2.098319
                    CHANNELS 3 Zrotation Xrotation Yrotation
                    End Site
                    {
                        OFFSET -0.000000 26.228985 0.000000
                    }
                }
            }
            JOINT LeftShoulder
            {
                OFFSET 4.178941 22.658146 -0.129871
                CHANNELS 3 Zrotation Xrotation Yrotation
                JOINT LeftArm
                {
                    OFFSET 9.497952 0.000000 0.000000
                    CHANNELS 3 Zrotation Xrotation Yrotation
                    JOINT LeftForeArm
                    {
                        OFFSET 38.855015 0.000000 0.000000
                        CHANNELS 3 Zrotation Xrotation Yrotation
                        JOINT LeftHand
                        {
                            OFFSET 24.940550 0.000000 0.000000
                            CHANNELS 3 Zrotation Xrotation Yrotation
                            End Site
                            {
                                OFFSET 15.737392 0.000000 0.000000
                            }
                        }
                    }
                }
            }
            JOINT RightShoulder
            {
                OFFSET -4.145384 22.658146 -0.129871
                CHANNELS 3 Zrotation Xrotation Yrotation
                JOINT RightArm
                {
                    OFFSET -9.497952 0.000000 0.000000
                    CHANNELS 3 Zrotation Xrotation Yrotation
                    JOINT RightForeArm
                    {
                        OFFSET -38.855015 0.000000 0.000000
                        CHANNELS 3 Zrotation Xrotation Yrotation
                        JOINT RightHand
                        {
                            OFFSET -24.940550 0.000000 0.000000
                            CHANNELS 3 Zrotation Xrotation Yrotation
                            End Site
                            {
                                OFFSET -15.737392 0.000000 0.000000
                            }
                        }
                    }
                }
            }
        }
    }
    JOINT LeftUpLeg
    {
        OFFSET 10.491594 0.000000 0.000000
        CHANNELS 3 Zrotation Xrotation Yrotation
        JOINT LeftLeg
        {
            OFFSET -0.000000 -46.080647 0.000000
            CHANNELS 3 Zrotation Xrotation Yrotation
            JOINT LeftFoot
            {
                OFFSET -0.000000 -50.184704 0.000000
                CHANNELS 3 Zrotation Xrotation Yrotation
                JOINT LeftToeBase
                {
                    OFFSET -0.000000 -6.819536 15.737392
                    CHANNELS 3 Zrotation Xrotation Yrotation
                    End Site
                    {
                        OFFSET -0.000000 0.000000 4.196638
                    }
                }
            }
        }
    }
    JOINT RightUpLeg
    {
        OFFSET -10.491594 0.000000 0.000000
        CHANNELS 3 Zrotation Xrotation Yrotation
        JOINT RightLeg
        {
            OFFSET -0.000000 -46.080647 0.000000
            CHANNELS 3 Zrotation Xrotation Yrotation
            JOINT RightFoot
            {
                OFFSET -0.000000 -50.184704 0.000000
                CHANNELS 3 Zrotation Xrotation Yrotation
                JOINT RightToeBase
                {
                    OFFSET -0.000000 -6.819536 15.737392
                    CHANNELS 3 Zrotation Xrotation Yrotation
                    End Site
                    {
                        OFFSET -0.000000 0.000000 4.196638
                    }
                }
            }
        }
    }
}
MOTION
Frames:    7
Frame Time:    0.008333
-31.887201    99.243286    39.188091    -4.393265    1.400919    88.508469    -4.873464    -7.126977    2.722646    4.498930    6.067334    2.787754    1.380521    5.905945    -0.189993    3.011966    -0.645198    0.116916    -10.208222    10.732641    -8.375249    -58.015968    35.831562    0.166134    -0.162612    -8.432204    -19.076181    -13.185349    -8.745669    2.507211    3.779169    9.392982    -10.020649    38.388199    53.810703    30.282822    -5.673538    -10.010695    18.746651    3.622681    -9.064377    0.709557    -2.027022    -30.070124    -1.578537    -4.370468    22.417713    0.650282    -9.157351    -2.896421    12.721771    0.000000    0.000000    0.000000    0.007797    9.800822    -2.025611    2.446579    22.741787    -0.607842    3.526640    -7.771814    -3.049833    0.000000    0.000000    0.000000    
-30.699617    99.426094    39.085522    -4.372576    1.492312    88.669853    -4.846687    -7.153486    2.515593    4.162696    5.917498    2.603462    1.179009    6.000611    -0.122154    3.451697    -0.436644    0.266794    -10.093695    10.769706    -8.264552    -57.931267    35.786152    -0.006406    -0.553429    -8.508083    -18.421486    -12.992020    -8.863563    2.370699    3.787532    9.519011    -9.823449    39.049202    53.931606    29.740498    -5.448513    -9.732621    18.359827    3.750536    -8.845740    0.539359    -2.275447    -29.536659    -1.329083    -4.307262    22.701447    0.363656    -7.666788    -2.698760    12.104527    0.000000    0.000000    0.000000    -0.374778    8.776973    -2.400994    2.626658    25.309095    -1.135348    3.702592    -5.578464    -2.239398    0.000000    0.000000    0.000000    
-29.485559    99.626884    39.026211    -4.286447    1.375762    88.943802    -4.697879    -6.713219    2.352644    3.849737    4.956470    2.461607    1.430505    6.662182    -0.135957    3.357379    -0.405097    0.222628    -10.115630    11.094739    -8.514914    -57.937599    35.718937    0.198913    -0.725155    -8.572397    -17.784615    -12.912134    -8.952716    2.398633    4.193403    9.920211    -9.583273    39.760365    54.107231    28.652462    -5.424619    -9.579971    18.098072    4.228872    -8.714046    0.342086    -2.373755    -28.861811    -0.899076    -4.039501    22.946564    -0.454402    -6.634119    -2.751840    11.627701    0.000000    0.000000    0.000000    -0.550333    7.716196    -2.531455    3.009548    28.026758    -1.643021    3.618532    -3.128863    -1.859716    0.000000    0.000000    0.000000    
-28.333252    99.824783    38.931320    -4.331959    1.387219    89.110054    -4.707181    -7.074025    2.150837    3.751293    5.632703    2.257323    1.326094    5.770425    -0.021151    3.440748    0.273383    0.332927    -9.716776    10.750725    -8.031241    -57.764793    36.091553    -0.670368    -1.160487    -8.472317    -17.240686    -12.473974    -8.929006    2.618124    3.775595    9.521270    -9.960598    39.920609    54.721275    28.917780    -5.206382    -9.282081    17.956514    4.532627    -8.466075    0.072729    -2.613625    -28.274420    -0.371400    -3.641815    23.095852    -1.653514    -5.640808    -2.962718    11.827655    0.000000    0.000000    0.000000    -0.876947    6.398020    -3.041836    3.119209    30.922422    -1.797955    3.068484    -1.330829    -1.427009    0.000000    0.000000    0.000000    
-27.224115    99.995842    38.824169    -4.315579    1.401485    89.185249    -4.433170    -6.660326    1.984050    3.076231    4.700462    2.115843    1.717309    6.421888    0.064591    3.294237    0.173774    0.376252    -9.537520    10.948795    -8.159902    -57.860985    36.080055    -0.456661    -1.292140    -8.511799    -16.745617    -12.427476    -8.987783    2.676982    4.421517    9.980796    -9.403826    40.375778    54.544903    27.953650    -4.933856    -8.914475    17.706787    5.096389    -8.160155    -0.136510    -2.828553    -27.609209    0.334485    -3.170784    23.177185    -2.895787    -4.618371    -3.230900    12.055079    0.000000    0.000000    0.000000    -1.302751    4.989907    -3.238477    3.453587    34.029079    -1.529834    2.417902    0.238463    -1.605125    0.000000    0.000000    0.000000    
-26.084496    100.166031    38.725376    -4.211799    1.412117    89.251419    -4.586827    -6.909953    1.774671    3.323073    5.402137    1.894909    1.424921    5.722231    0.186612    3.404402    0.585614    0.526205    -9.298076    10.409446    -8.022959    -58.081902    36.311443    -0.752198    -1.476206    -8.446544    -16.486290    -12.365931    -8.963495    2.853679    3.873344    9.797009    -9.506366    40.037392    55.330410    28.535431    -4.725235    -8.980362    17.783552    5.091075    -8.280908    -0.721683    -3.059865    -26.727589    0.996100    -2.652546    23.058449    -4.152479    -3.632046    -3.553011    12.137074    0.000000    0.000000    0.000000    -1.687261    3.668308    -3.401363    3.774551    36.958466    -1.443299    1.889621    1.896969    -1.868217    0.000000    0.000000    0.000000    
-24.983919    100.328865    38.624035    -4.126606    1.438921    89.294678    -4.458420    -6.515297    1.670817    2.891660    4.896478    1.801050    1.739946    5.663957    0.284444    3.296540    0.684765    0.577507    -8.954302    10.344715    -8.042339    -58.250908    36.443111    -0.767079    -1.456185    -8.279431    -16.315065    -12.782949    -8.839925    3.196609    4.298519    9.773876    -9.569718    40.355106    55.297283    27.874163    -4.461044    -8.368861    17.693163    6.128651    -7.719652    -0.726413    -3.268873    -25.863626    1.576971    -2.230557    22.892252    -5.236408    -2.838342    -3.878207    12.100482    0.000000    0.000000    0.000000    -2.062508    2.326859    -3.532918    4.081360    39.721466    -1.209725    1.090545    3.280296    -2.197630    0.000000    0.000000    0.000000    
